<svg xmlns="http://www.w3.org/2000/svg" width="48" height="48" viewBox="0 0 48 48">
  <defs>
    <linearGradient id="bg" x1="0" y1="0" x2="0" y2="1">
      <stop offset="0%" stop-color="#eef2ff"/>
      <stop offset="100%" stop-color="#e0e7ff"/>
    </linearGradient>
  </defs>
  <circle cx="24" cy="24" r="24" fill="url(#bg)"/>
  <!-- Hair back -->
  <ellipse cx="24" cy="22" rx="15" ry="16" fill="#D4A843"/>
  <!-- Face -->
  <ellipse cx="24" cy="25" rx="11" ry="12" fill="#F5D6C3"/>
  <!-- Hair front - side swept -->
  <path d="M11 19 Q13 9 24 8 Q35 9 36 17 Q34 12 24 11 Q15 12 11 19Z" fill="#D4A843"/>
  <!-- Hair sweep -->
  <path d="M11 19 Q10 14 16 10 Q12 14 11 19Z" fill="#D4A843"/>
  <!-- Hair sides -->
  <path d="M11 19 Q8 30 11 38 Q11 28 12 22Z" fill="#D4A843"/>
  <path d="M36 17 Q39 28 36 36 Q36 26 35 20Z" fill="#D4A843"/>
  <!-- Eyes -->
  <ellipse cx="20" cy="24" rx="2" ry="2.2" fill="#4A7C59"/>
  <ellipse cx="28" cy="24" rx="2" ry="2.2" fill="#4A7C59"/>
  <circle cx="20.6" cy="23.4" r="0.7" fill="white"/>
  <circle cx="28.6" cy="23.4" r="0.7" fill="white"/>
  <!-- Eyebrows -->
  <path d="M17 21 Q20 19.5 22.5 21" stroke="#B08930" stroke-width="0.7" fill="none"/>
  <path d="M25.5 21 Q28 19.5 31 21" stroke="#B08930" stroke-width="0.7" fill="none"/>
  <!-- Nose -->
  <path d="M23.5 26 Q24 27.5 24.5 26" stroke="#E0BCA8" stroke-width="0.8" fill="none"/>
  <!-- Gentle smile -->
  <path d="M20 30 Q24 33 28 30" stroke="#D4918A" stroke-width="1" fill="none" stroke-linecap="round"/>
  <!-- Cheeks -->
  <circle cx="17" cy="28" r="2" fill="#F5B0B0" opacity="0.25"/>
  <circle cx="31" cy="28" r="2" fill="#F5B0B0" opacity="0.25"/>
</svg>
