<svg xmlns="http://www.w3.org/2000/svg" width="48" height="48" viewBox="0 0 48 48">
  <defs>
    <linearGradient id="bg" x1="0" y1="0" x2="0" y2="1">
      <stop offset="0%" stop-color="#eef2ff"/>
      <stop offset="100%" stop-color="#e0e7ff"/>
    </linearGradient>
  </defs>
  <circle cx="24" cy="24" r="24" fill="url(#bg)"/>
  <!-- Hair back -->
  <ellipse cx="24" cy="22" rx="14" ry="15" fill="#1A0A00"/>
  <!-- Face -->
  <ellipse cx="24" cy="25" rx="11" ry="12" fill="#A0704F"/>
  <!-- Hair front - center parted -->
  <path d="M12 20 Q13 10 24 8 Q35 10 36 20 Q34 13 24 11 Q14 13 12 20Z" fill="#1A0A00"/>
  <path d="M24 8 L24 14" stroke="#1A0A00" stroke-width="0.5"/>
  <!-- Hair sides (long) -->
  <path d="M12 20 Q9 30 12 38 Q12 28 13 22Z" fill="#1A0A00"/>
  <path d="M36 20 Q39 30 36 38 Q36 28 35 22Z" fill="#1A0A00"/>
  <!-- Bindi -->
  <circle cx="24" cy="18.5" r="1.3" fill="#DC2626"/>
  <!-- Eyes (slightly larger, expressive) -->
  <ellipse cx="20" cy="24" rx="2.2" ry="2.4" fill="#1A0A00"/>
  <ellipse cx="28" cy="24" rx="2.2" ry="2.4" fill="#1A0A00"/>
  <circle cx="20.6" cy="23.3" r="0.8" fill="white"/>
  <circle cx="28.6" cy="23.3" r="0.8" fill="white"/>
  <!-- Eyebrows (arched) -->
  <path d="M17 20.5 Q20 18.5 23 20.5" stroke="#1A0A00" stroke-width="0.8" fill="none"/>
  <path d="M25 20.5 Q28 18.5 31 20.5" stroke="#1A0A00" stroke-width="0.8" fill="none"/>
  <!-- Nose -->
  <path d="M23 26 Q24 28 25 26" stroke="#8E6040" stroke-width="0.8" fill="none"/>
  <!-- Nose ring (tiny) -->
  <circle cx="22" cy="27.5" r="0.6" stroke="#DAA520" stroke-width="0.5" fill="none"/>
  <!-- Smile -->
  <path d="M20 30.5 Q24 33.5 28 30.5" stroke="#8B5E42" stroke-width="1" fill="none" stroke-linecap="round"/>
  <!-- Cheeks -->
  <circle cx="17" cy="28" r="1.8" fill="#D4856A" opacity="0.25"/>
  <circle cx="31" cy="28" r="1.8" fill="#D4856A" opacity="0.25"/>
</svg>
