<svg xmlns="http://www.w3.org/2000/svg" width="48" height="48" viewBox="0 0 48 48">
  <defs>
    <linearGradient id="bg" x1="0" y1="0" x2="0" y2="1">
      <stop offset="0%" stop-color="#eef2ff"/>
      <stop offset="100%" stop-color="#e0e7ff"/>
    </linearGradient>
  </defs>
  <circle cx="24" cy="24" r="24" fill="url(#bg)"/>
  <!-- Headwrap -->
  <path d="M10 22 Q10 8 24 7 Q38 8 38 22 Q37 14 24 12 Q11 14 10 22Z" fill="#7C3AED"/>
  <path d="M10 22 Q9 18 12 13 Q10 18 10 22Z" fill="#6D28D9"/>
  <path d="M38 22 Q39 18 36 13 Q38 18 38 22Z" fill="#6D28D9"/>
  <!-- Wrap band -->
  <path d="M10 22 Q17 19 24 20 Q31 19 38 22 Q31 21 24 22 Q17 21 10 22Z" fill="#6D28D9"/>
  <!-- Wrap knot/fold detail -->
  <ellipse cx="18" cy="12" rx="2.5" ry="3" fill="#6D28D9"/>
  <path d="M16 10 Q18 8 20 10 Q18 9 16 10Z" fill="#7C3AED"/>
  <!-- Face -->
  <ellipse cx="24" cy="28" rx="11" ry="11" fill="#6B4226"/>
  <!-- Eyes -->
  <ellipse cx="20" cy="27" rx="2" ry="2.2" fill="#1A0A00"/>
  <ellipse cx="28" cy="27" rx="2" ry="2.2" fill="#1A0A00"/>
  <circle cx="20.7" cy="26.4" r="0.7" fill="white"/>
  <circle cx="28.7" cy="26.4" r="0.7" fill="white"/>
  <!-- Eyebrows -->
  <path d="M17 24 Q20 22.5 23 24" stroke="#3D1F0E" stroke-width="0.8" fill="none"/>
  <path d="M25 24 Q28 22.5 31 24" stroke="#3D1F0E" stroke-width="0.8" fill="none"/>
  <!-- Nose -->
  <path d="M23 29 Q24 31 25 29" stroke="#5A3518" stroke-width="0.8" fill="none"/>
  <!-- Warm smile -->
  <path d="M19 33 Q24 36.5 29 33" stroke="#5A3518" stroke-width="1.2" fill="none" stroke-linecap="round"/>
  <!-- Cheeks -->
  <circle cx="17" cy="31" r="2" fill="#8B5E3C" opacity="0.3"/>
  <circle cx="31" cy="31" r="2" fill="#8B5E3C" opacity="0.3"/>
  <!-- Earrings -->
  <circle cx="13" cy="29" r="1" fill="#DAA520"/>
  <circle cx="35" cy="29" r="1" fill="#DAA520"/>
</svg>
