<svg xmlns="http://www.w3.org/2000/svg" width="48" height="48" viewBox="0 0 48 48">
  <defs>
    <linearGradient id="bg" x1="0" y1="0" x2="0" y2="1">
      <stop offset="0%" stop-color="#eef2ff"/>
      <stop offset="100%" stop-color="#e0e7ff"/>
    </linearGradient>
  </defs>
  <circle cx="24" cy="24" r="24" fill="url(#bg)"/>
  <!-- Hair -->
  <ellipse cx="24" cy="18" rx="13" ry="10" fill="#2C1B0E"/>
  <!-- Face -->
  <ellipse cx="24" cy="25" rx="11" ry="12" fill="#C8976E"/>
  <!-- Hair top -->
  <path d="M11 20 Q12 10 24 9 Q36 10 37 20 Q35 13 24 12 Q13 13 11 20Z" fill="#2C1B0E"/>
  <!-- Beard/stubble -->
  <path d="M15 30 Q16 36 24 37 Q32 36 33 30 Q31 34 24 35 Q17 34 15 30Z" fill="#3D2B1A" opacity="0.4"/>
  <!-- Eyes -->
  <ellipse cx="20" cy="24" rx="2" ry="2" fill="#2C1B0E"/>
  <ellipse cx="28" cy="24" rx="2" ry="2" fill="#2C1B0E"/>
  <circle cx="20.6" cy="23.4" r="0.7" fill="white"/>
  <circle cx="28.6" cy="23.4" r="0.7" fill="white"/>
  <!-- Eyebrows (thicker, masculine) -->
  <path d="M16.5 20.5 Q20 19 23 20.5" stroke="#2C1B0E" stroke-width="1.2" fill="none"/>
  <path d="M25 20.5 Q28 19 31.5 20.5" stroke="#2C1B0E" stroke-width="1.2" fill="none"/>
  <!-- Nose -->
  <path d="M23 26 Q24 28.5 25 26" stroke="#B5855E" stroke-width="1" fill="none"/>
  <!-- Slight smile -->
  <path d="M20 31 Q24 33.5 28 31" stroke="#9E6E55" stroke-width="1" fill="none" stroke-linecap="round"/>
</svg>
